#!OML:ASF H:\BabyWalks\Project 1\Capture day 1\Session 1\baby.ASF
:FULLY-SPECIFIED
:DEGREES
733
root -6.81672 17.6801 0.909143 489.718 -87.0846 -470.914
lowerback 22.6768 -0.783354 3.54322
upperback 8.67931 -0.832456 3.11306
thorax -3.12903 -0.69792 1.54629
lowerneck -7.14652 5.28159 9.04665
upperneck 3.44049 6.92981 -12.7239
head 2.96819 3.15599 -4.9948
rclavicle 1.59028e-015 1.78906e-015
rhumerus -44.9912 11.9992 -61.1373
rradius 73.5457
rwrist -9.15324
rhand 1.16832 -17.8086
rfingers 7.12502
rthumb 26.7089 -45.9437
lclavicle 1.59028e-015 1.78906e-015
lhumerus -45.1357 -7.65189 69.9114
lradius 100.989
lwrist 64.5266
lhand 19.8814 15.0988
lfingers 7.12502
lthumb 44.4246 38.8215
rfemur -38.9277 1.19679 14.6561
rtibia 30.9192
rfoot -18.4464 -18.8967
rtoes -4.71707
lfemur -41.3715 9.19482 -21.0399
ltibia 35.859
lfoot -18.6902 2.84411
ltoes -8.2945
734
root -6.80583 17.6815 0.844261 479.555 -86.6475 -460.64
lowerback 22.7414 -0.779986 3.32145
upperback 8.64457 -0.865231 3.0021
thorax -3.20052 -0.712885 1.56304
lowerneck -7.26647 5.27582 9.10836
upperneck 3.80341 6.90324 -12.1132
head 3.06956 3.15739 -4.81196
rclavicle -5.96354e-016 2.18663e-014
rhumerus -45.168 7.37126 -59.9136
rradius 74.2095
rwrist -11.0488
rhand -0.714214 -18.0647
rfingers 7.12502
rthumb 24.9061 -46.462
lclavicle -5.96354e-016 2.18663e-014
lhumerus -44.7745 -5.13564 69.5183
lradius 102.904
lwrist 64.651
lhand 15.7264 16.2608
lfingers 7.12502
lthumb 40.535 41.3232
rfemur -38.8161 0.64654 15.7824
rtibia 30.5451
rfoot -18.548 -18.7398
rtoes -5.15824
lfemur -41.7 8.99758 -20.0532
ltibia 36.1524
lfoot -18.7743 3.05324
ltoes -8.85015
735
root -6.79763 17.6818 0.779303 472.247 -86.1374 -453.264
lowerback 22.7979 -0.77705 3.07992
upperback 8.60783 -0.903717 2.88376
thorax -3.26993 -0.730561 1.58444
lowerneck -7.42935 5.2814 9.13747
upperneck 4.21778 6.88894 -11.4775
head 3.19333 3.16468 -4.61416
rclavicle 3.12092e-014 3.79679e-014
rhumerus -45.4232 2.83299 -58.7244
rradius 74.957
rwrist -13.1275
rhand -2.51281 -18.4642
rfingers 7.12502
rthumb 23.1815 -47.0892
lclavicle 3.12092e-014 3.79679e-014
lhumerus -44.4277 -2.73544 69.18
lradius 104.778
lwrist 64.7152
lhand 11.7698 17.5095
lfingers 7.12502
lthumb 36.803 43.6246
rfemur -38.675 0.0947015 16.9046
rtibia 30.1972
rfoot -18.6478 -18.4968
rtoes -5.55884
lfemur -41.9784 8.80471 -19.0658
ltibia 36.462
lfoot -18.8552 3.25311
ltoes -9.30454
736
root -6.7918 17.6809 0.714248 466.977 -85.5751 -447.969
lowerback 22.8441 -0.77389 2.83508
upperback 8.56943 -0.94387 2.75903
thorax -3.33583 -0.748784 1.60114
lowerneck -7.60488 5.29263 9.15242
upperneck 4.66021 6.87705 -10.8204
head 3.32735 3.17488 -4.40696
rclavicle 3.2551e-015 -3.33834e-014
rhumerus -45.7594 -1.56817 -57.5776
rradius 75.8017
rwrist -15.4366
rhand -4.23707 -19.0022
rfingers 7.12502
rthumb 21.5263 -47.8259
lclavicle 3.2551e-015 -3.33834e-014
lhumerus -44.0956 -0.499882 68.8816
lradius 106.6
lwrist 64.6934
lhand 8.10183 18.789
lfingers 7.12502
lthumb 33.3238 45.7203
rfemur -38.505 -0.454401 18.0369
rtibia 29.8755
rfoot -18.7392 -18.1754
rtoes -5.92683
lfemur -42.2076 8.61658 -18.0617
ltibia 36.7872
lfoot -18.9301 3.44595
ltoes -9.65165
737
root -6.78841 17.6788 0.648816 463.243 -84.9932 -444.25
lowerback 22.8758 -0.763779 2.57359
upperback 8.52908 -0.979961 2.6239
thorax -3.39638 -0.764792 1.61487
lowerneck -7.78625 5.30438 9.15657
upperneck 5.11685 6.85971 -10.1492
head 3.46605 3.18443 -4.19396
rclavicle -1.47101e-014 -5.725e-014
rhumerus -46.1758 -5.80122 -56.4735
rradius 76.7487
rwrist -17.9929
rhand -5.86372 -19.699
rfingers 7.12502
rthumb 19.9634 -48.6936
lclavicle -1.47101e-014 -5.725e-014
lhumerus -43.7746 1.52217 68.62
lradius 108.362
lwrist 64.5831
lhand 4.77371 20.0224
lfingers 7.12502
lthumb 30.1541 47.5816
rfemur -38.3114 -0.991741 19.162
rtibia 29.58
rfoot -18.8186 -17.7891
rtoes -6.27177
lfemur -42.3877 8.43601 -17.0555
ltibia 37.1259
lfoot -19.0004 3.63725
ltoes -9.92435
738
root -6.78714 17.6757 0.583445 460.569 -84.3986 -441.63
lowerback 22.8914 -0.748085 2.31228
upperback 8.48405 -1.00996 2.47733
thorax -3.45405 -0.777285 1.61442
lowerneck -7.94683 5.30768 9.16224
upperneck 5.56794 6.82392 -9.46241
head 3.59837 3.1882 -3.9783
rclavicle 8.94531e-015 1.25234e-014
rhumerus -46.6719 -9.82688 -55.4116
rradius 77.8121
rwrist -20.8246
rhand -7.39471 -20.6225
rfingers 7.12502
rthumb 18.4912 -49.7637
lclavicle 8.94531e-015 1.25234e-014
lhumerus -43.4622 3.28444 68.3863
lradius 110.06
lwrist 64.3723
lhand 1.82897 21.1845
lfingers 7.12502
lthumb 27.341 49.2216
rfemur -38.0952 -1.51626 20.2845
rtibia 29.3088
rfoot -18.878 -17.3507
rtoes -6.60922
lfemur -42.5213 8.26207 -16.0416
ltibia 37.4785
lfoot -19.068 3.8267
ltoes -10.1301
739
root -6.78819 17.6715 0.517816 458.738 -83.8017 -439.893
lowerback 22.8926 -0.718734 2.04626
upperback 8.43513 -1.02468 2.31778
thorax -3.50892 -0.781905 1.59861
lowerneck -8.06955 5.29498 9.18821
upperneck 5.99158 6.75892 -8.77551
head 3.71532 3.1811 -3.76907
rclavicle -6.75868e-015 6.36111e-015
rhumerus -47.2403 -13.5937 -54.4002
rradius 78.9836
rwrist -23.9201
rhand -8.90208 -21.7026
rfingers 7.12502
rthumb 17.0407 -50.9752
lclavicle -6.75868e-015 6.36111e-015
lhumerus -43.1513 4.7306 68.1815
lradius 111.676
lwrist 64.0551
lhand -0.708881 22.1949
lfingers 7.12502
lthumb 24.9112 50.5915
rfemur -37.8525 -2.01758 21.3992
rtibia 29.0602
rfoot -18.9164 -16.8721
rtoes -6.94695
lfemur -42.6033 8.10618 -15.0243
ltibia 37.8454
lfoot -19.1364 4.01547
ltoes -10.2807
740
root -6.79154 17.6662 0.452349 457.495 -83.2174 -438.783
lowerback 22.8804 -0.685097 1.75677
upperback 8.37887 -1.03924 2.15184
thorax -3.56476 -0.786321 1.58914
lowerneck -8.13281 5.27446 9.23139
upperneck 6.38012 6.67955 -8.10512
head 3.81307 3.16983 -3.57037
rclavicle 2.38542e-015 6.36111e-015
rhumerus -47.8251 -17.0051 -53.4548
rradius 80.233
rwrist -27.2859
rhand -10.4279 -22.9884
rfingers 7.12502
rthumb 15.5716 -52.3815
lclavicle 2.38542e-015 6.36111e-015
lhumerus -42.8649 5.86128 68.0012
lradius 113.213
lwrist 63.6617
lhand -2.81543 23.0542
lfingers 7.12502
lthumb 22.8911 51.7155
rfemur -37.5801 -2.5103 22.4966
rtibia 28.8304
rfoot -18.9303 -16.3535
rtoes -7.29786
lfemur -42.6335 7.96622 -14.0186
ltibia 38.2284
lfoot -19.2134 4.2039
ltoes -10.3776
741
root -6.79761 17.6599 0.386711 456.762 -82.6391 -438.231
lowerback 22.8505 -0.638944 1.44206
upperback 8.32195 -1.04412 1.98665
thorax -3.61201 -0.78632 1.59208
lowerneck -8.14602 5.24346 9.27598
upperneck 6.73909 6.58332 -7.43689
head 3.89359 3.15265 -3.37513
rclavicle -3.65764e-014 -3.89618e-014
rhumerus -48.3899 -20.0141 -52.5888
rradius 81.5343
rwrist -30.868
rhand -12.0045 -24.4372
rfingers 7.12502
rthumb 14.0527 -53.9422
lclavicle -3.65764e-014 -3.89618e-014
lhumerus -42.5876 6.65482 67.8438
lradius 114.648
lwrist 63.1943
lhand -4.46108 23.7314
lfingers 7.12502
lthumb 21.3111 52.5797
rfemur -37.2652 -2.97225 23.5802
rtibia 28.6166
rfoot -18.9298 -15.8138
rtoes -7.63936
lfemur -42.6005 7.85229 -13.0118
ltibia 38.6289
lfoot -19.3034 4.39841
ltoes -10.4358
742
root -6.80639 17.6525 0.32159 456.408 -82.0675 -438.104
lowerback 22.8049 -0.583659 1.10842
upperback 8.26228 -1.04173 1.82581
thorax -3.65396 -0.783013 1.60844
lowerneck -8.0974 5.19992 9.32816
upperneck 7.06592 6.47037 -6.78933
head 3.95508 3.12869 -3.19034
rclavicle -2.38542e-014 -2.14687e-014
rhumerus -48.8812 -22.565 -51.8174
rradius 82.8344
rwrist -34.6034
rhand -13.6664 -25.9295
rfingers 7.12502
rthumb 12.4508 -55.5387
lclavicle -2.38542e-014 -2.14687e-014
lhumerus -42.3186 7.1092 67.7046
lradius 115.976
lwrist 62.6884
lhand -5.62926 24.1966
lfingers 7.12502
lthumb 20.1887 53.1675
rfemur -36.9012 -3.42018 24.6514
rtibia 28.4154
rfoot -18.9189 -15.2404
rtoes -7.96954
lfemur -42.502 7.76673 -12.0081
ltibia 39.0494
lfoot -19.4149 4.59245
ltoes -10.4454
743
root -6.81798 17.6441 0.257481 456.327 -81.5092 -438.301
lowerback 22.743 -0.517256 0.758736
upperback 8.19922 -1.02853 1.67099
thorax -3.69097 -0.774621 1.6375
lowerneck -8.02289 5.14598 9.35323
upperneck 7.40128 6.344 -6.13458
head 4.01408 3.09892 -3.00051
rclavicle -1.27222e-014 2.38542e-014
rhumerus -49.2625 -24.6371 -51.148
rradius 84.0715
rwrist -38.3524
rhand -15.3323 -27.2941
rfingers 7.12502
rthumb 10.8442 -56.9941
lclavicle -1.27222e-014 2.38542e-014
lhumerus -42.0518 7.22395 67.5845
lradius 117.193
lwrist 62.162
lhand -6.33287 24.454
lfingers 7.12502
lthumb 19.5123 53.4949
rfemur -36.483 -3.85911 25.6987
rtibia 28.2243
rfoot -18.9028 -14.6339
rtoes -8.27759
lfemur -42.3364 7.70827 -11.0187
ltibia 39.4912
lfoot -19.55 4.78203
ltoes -10.4091
744
root -6.83243 17.6343 0.194292 456.457 -80.952 -438.756
lowerback 22.6504 -0.437399 0.400634
upperback 8.13998 -1.00003 1.53046
thorax -3.70819 -0.759266 1.68222
lowerneck -7.9162 5.07603 9.35563
upperneck 7.7444 6.1971 -5.47659
head 4.06923 3.05971 -2.80824
rclavicle -2.06736e-014 -3.81667e-014
rhumerus -49.4903 -26.2241 -50.5929
rradius 85.1989
rwrist -41.9314
rhand -16.8574 -28.3744
rfingers 7.12502
rthumb 9.37296 -58.146
lclavicle -2.06736e-014 -3.81667e-014
lhumerus -41.7679 7.02669 67.478
lradius 118.3
lwrist 61.625
lhand -6.61126 24.5441
lfingers 7.12502
lthumb 19.2447 53.6119
rfemur -36.0056 -4.27562 26.7265
rtibia 28.0426
rfoot -18.8941 -14.0002
rtoes -8.54588
lfemur -42.1051 7.67921 -10.0301
ltibia 39.9557
lfoot -19.7097 4.95801
ltoes -10.3184
745
root -6.84959 17.6232 0.132515 456.732 -80.4068 -439.401
lowerback 22.5274 -0.337643 0.0440785
upperback 8.08061 -0.945147 1.3982
thorax -3.71075 -0.73115 1.72787
lowerneck -7.81878 4.98585 9.31963
upperneck 8.13657 6.02159 -4.80414
head 4.13882 3.00679 -2.60689
rclavicle 2.14687e-014 -1.82882e-014
rhumerus -49.5755 -27.343 -50.1406
rradius 86.2027
rwrist -45.1403
rhand -18.0901 -29.1199
rfingers 7.12502
rthumb 8.18341 -58.9414
lclavicle 2.14687e-014 -1.82882e-014
lhumerus -41.4448 6.5133 67.3841
lradius 119.305
lwrist 61.0794
lhand -6.52507 24.4957
lfingers 7.12502
lthumb 19.3275 53.5552
rfemur -35.4727 -4.66897 27.7153
rtibia 27.8704
rfoot -18.8933 -13.3444
rtoes -8.76209
lfemur -41.8123 7.67234 -9.05807
ltibia 40.4411
lfoot -19.8907 5.116
ltoes -10.1804
746
root -6.86944 17.6106 0.0725587 457.078 -79.867 -440.161
lowerback 22.3708 -0.221813 -0.295644
upperback 8.02064 -0.864844 1.27737
thorax -3.69784 -0.690607 1.76943
lowerneck -7.73991 4.87521 9.23375
upperneck 8.5995 5.81542 -4.10578
head 4.23069 2.93971 -2.39087
rclavicle -2.06736e-014 -7.71285e-014
rhumerus -49.5127 -28.0004 -49.7952
rradius 87.0878
rwrist -47.8165
rhand -18.9028 -29.5306
rfingers 7.12502
rthumb 7.39896 -59.3813
lclavicle -2.06736e-014 -7.71285e-014
lhumerus -41.075 5.7184 67.2959
lradius 120.224
lwrist 60.5064
lhand -6.19656 24.3735
lfingers 7.12502
lthumb 19.6434 53.4011
rfemur -34.8839 -5.05027 28.6698
rtibia 27.706
rfoot -18.8934 -12.6633
rtoes -8.95528
lfemur -41.462 7.67787 -8.09652
ltibia 40.9485
lfoot -20.0922 5.25011
ltoes -9.97937
747
root -6.89202 17.5963 0.014481 457.461 -79.3336 -441.004
lowerback 22.1797 -0.086019 -0.61082
upperback 7.96515 -0.752572 1.16716
thorax -3.664 -0.634613 1.80017
lowerneck -7.7022 4.74728 9.11316
upperneck 9.15605 5.57827 -3.39038
head 4.35701 2.85882 -2.16465
rclavicle -3.4191e-014 -2.22639e-014
rhumerus -49.316 -28.2337 -49.552
rradius 87.878
rwrist -49.8124
rhand -19.2133 -29.6317
rfingers 7.12502
rthumb 7.09924 -59.4926
lclavicle -3.4191e-014 -2.22639e-014
lhumerus -40.6314 4.66368 67.2111
lradius 121.075
lwrist 59.8867
lhand -5.77729 24.222
lfingers 7.12502
lthumb 20.0464 53.2078
rfemur -34.2375 -5.41 29.5816
rtibia 27.5489
rfoot -18.89 -11.9698
rtoes -9.12013
lfemur -41.055 7.68702 -7.14635
ltibia 41.4763
lfoot -20.3093 5.36313
ltoes -9.72933
